<svg preserveAspectRatio="none" width="100%" height="100%" overflow="visible" style="display: block;" viewBox="0 0 20.2369 20.2369" fill="none" xmlns="http://www.w3.org/2000/svg">
<path id="Star 2" d="M9.18061 0.652964C9.50276 -0.217654 10.7342 -0.217655 11.0563 0.652963L13.2 6.44613C13.3013 6.71985 13.5171 6.93566 13.7908 7.03694L19.5839 9.18061C20.4546 9.50276 20.4546 10.7342 19.584 11.0563L13.7908 13.2C13.5171 13.3013 13.3013 13.5171 13.2 13.7908L11.0563 19.5839C10.7342 20.4546 9.50276 20.4546 9.18061 19.584L7.03694 13.7908C6.93566 13.5171 6.71985 13.3013 6.44613 13.2L0.652964 11.0563C-0.217654 10.7342 -0.217655 9.50276 0.652963 9.18061L6.44613 7.03694C6.71985 6.93566 6.93566 6.71985 7.03694 6.44613L9.18061 0.652964Z" fill="var(--fill-0, #14AE5C)"/>
</svg>
